<svg width="22" height="22" viewBox="0 0 22 22" fill="none" xmlns="http://www.w3.org/2000/svg">
<path d="M17.4167 2.75H13.7501C12.7376 2.75 11.9167 3.57081 11.9167 4.58333V15.5833C11.9167 17.6084 13.5584 19.25 15.5834 19.25C17.6085 19.25 19.2501 17.6084 19.2501 15.5833V4.58333C19.2501 3.57081 18.4293 2.75 17.4167 2.75" stroke="#4B465C" stroke-width="1.5" stroke-linecap="round" stroke-linejoin="round"/>
<path d="M17.4167 2.75H13.7501C12.7376 2.75 11.9167 3.57081 11.9167 4.58333V15.5833C11.9167 17.6084 13.5584 19.25 15.5834 19.25C17.6085 19.25 19.2501 17.6084 19.2501 15.5833V4.58333C19.2501 3.57081 18.4293 2.75 17.4167 2.75" stroke="white" stroke-opacity="0.7" stroke-width="1.5" stroke-linecap="round" stroke-linejoin="round"/>
<path d="M11.9166 6.7373L10.0833 4.90396C9.36734 4.18826 8.20684 4.18826 7.49093 4.90396L4.89859 7.4963C4.18289 8.21221 4.18289 9.37271 4.89859 10.0886L13.1486 18.3386" stroke="#4B465C" stroke-width="1.5" stroke-linecap="round" stroke-linejoin="round"/>
<path d="M11.9166 6.7373L10.0833 4.90396C9.36734 4.18826 8.20684 4.18826 7.49093 4.90396L4.89859 7.4963C4.18289 8.21221 4.18289 9.37271 4.89859 10.0886L13.1486 18.3386" stroke="white" stroke-opacity="0.7" stroke-width="1.5" stroke-linecap="round" stroke-linejoin="round"/>
<path d="M6.69167 11.9165H4.58333C3.57081 11.9165 2.75 12.7373 2.75 13.7498V17.4165C2.75 18.429 3.57081 19.2498 4.58333 19.2498H15.5833" stroke="#4B465C" stroke-width="1.5" stroke-linecap="round" stroke-linejoin="round"/>
<path d="M6.69167 11.9165H4.58333C3.57081 11.9165 2.75 12.7373 2.75 13.7498V17.4165C2.75 18.429 3.57081 19.2498 4.58333 19.2498H15.5833" stroke="white" stroke-opacity="0.7" stroke-width="1.5" stroke-linecap="round" stroke-linejoin="round"/>
<path d="M15.5833 15.5831V15.5923" stroke="#4B465C" stroke-width="1.5" stroke-linecap="round" stroke-linejoin="round"/>
<path d="M15.5833 15.5831V15.5923" stroke="white" stroke-opacity="0.7" stroke-width="1.5" stroke-linecap="round" stroke-linejoin="round"/>
</svg>
