<svg width="22" height="22" viewBox="0 0 22 22" fill="none" xmlns="http://www.w3.org/2000/svg">
<path d="M8.24996 6.4165H5.49996C4.48744 6.4165 3.66663 7.23732 3.66663 8.24984V16.4998C3.66663 17.5124 4.48744 18.3332 5.49996 18.3332H13.75C14.7625 18.3332 15.5833 17.5124 15.5833 16.4998V13.7498" stroke="#4B465C" stroke-width="1.5" stroke-linecap="round" stroke-linejoin="round"/>
<path d="M8.24996 6.4165H5.49996C4.48744 6.4165 3.66663 7.23732 3.66663 8.24984V16.4998C3.66663 17.5124 4.48744 18.3332 5.49996 18.3332H13.75C14.7625 18.3332 15.5833 17.5124 15.5833 16.4998V13.7498" stroke="white" stroke-opacity="0.2" stroke-width="1.5" stroke-linecap="round" stroke-linejoin="round"/>
<path d="M8.25 13.7499H11L18.7917 5.95822C19.5511 5.19882 19.5511 3.96761 18.7917 3.20822C18.0323 2.44882 16.8011 2.44882 16.0417 3.20822L8.25 10.9999V13.7499" stroke="#4B465C" stroke-width="1.5" stroke-linecap="round" stroke-linejoin="round"/>
<path d="M8.25 13.7499H11L18.7917 5.95822C19.5511 5.19882 19.5511 3.96761 18.7917 3.20822C18.0323 2.44882 16.8011 2.44882 16.0417 3.20822L8.25 10.9999V13.7499" stroke="white" stroke-opacity="0.2" stroke-width="1.5" stroke-linecap="round" stroke-linejoin="round"/>
<path d="M14.6666 4.5835L17.4166 7.3335" stroke="#4B465C" stroke-width="1.5" stroke-linecap="round" stroke-linejoin="round"/>
<path d="M14.6666 4.5835L17.4166 7.3335" stroke="white" stroke-opacity="0.2" stroke-width="1.5" stroke-linecap="round" stroke-linejoin="round"/>
</svg>
