<svg width="24" height="24" viewBox="0 0 24 24" fill="none" xmlns="http://www.w3.org/2000/svg">
<path d="M9 4H12L14 6H19C20.1046 6 21 6.89543 21 8V15C21 16.1046 20.1046 17 19 17H9C7.89543 17 7 16.1046 7 15V6C7 4.89543 7.89543 4 9 4" stroke="#4B465C" stroke-width="1.5" stroke-linecap="round" stroke-linejoin="round"/>
<path d="M9 4H12L14 6H19C20.1046 6 21 6.89543 21 8V15C21 16.1046 20.1046 17 19 17H9C7.89543 17 7 16.1046 7 15V6C7 4.89543 7.89543 4 9 4" stroke="white" stroke-opacity="0.7" stroke-width="1.5" stroke-linecap="round" stroke-linejoin="round"/>
<path d="M17 17V19C17 20.1046 16.1046 21 15 21H5C3.89543 21 3 20.1046 3 19V10C3 8.89543 3.89543 8 5 8H7" stroke="#4B465C" stroke-width="1.5" stroke-linecap="round" stroke-linejoin="round"/>
<path d="M17 17V19C17 20.1046 16.1046 21 15 21H5C3.89543 21 3 20.1046 3 19V10C3 8.89543 3.89543 8 5 8H7" stroke="white" stroke-opacity="0.7" stroke-width="1.5" stroke-linecap="round" stroke-linejoin="round"/>
</svg>
