<svg width="24" height="24" viewBox="0 0 24 24" fill="none" xmlns="http://www.w3.org/2000/svg">
<path d="M3 20.0001L4.3 16.1001C1.97612 12.6631 2.87388 8.22782 6.39977 5.72638C9.92566 3.22495 14.9902 3.4303 18.2453 6.20667C21.5003 8.98304 21.9401 13.4726 19.2739 16.7072C16.6076 19.9419 11.6592 20.9222 7.7 19.0001L3 20.0001" stroke="#4B465C" stroke-width="1.5" stroke-linecap="round" stroke-linejoin="round"/>
<path d="M3 20.0001L4.3 16.1001C1.97612 12.6631 2.87388 8.22782 6.39977 5.72638C9.92566 3.22495 14.9902 3.4303 18.2453 6.20667C21.5003 8.98304 21.9401 13.4726 19.2739 16.7072C16.6076 19.9419 11.6592 20.9222 7.7 19.0001L3 20.0001" stroke="white" stroke-opacity="0.7" stroke-width="1.5" stroke-linecap="round" stroke-linejoin="round"/>
<path d="M12 11.9999V12.0099" stroke="#4B465C" stroke-width="1.5" stroke-linecap="round" stroke-linejoin="round"/>
<path d="M12 11.9999V12.0099" stroke="white" stroke-opacity="0.7" stroke-width="1.5" stroke-linecap="round" stroke-linejoin="round"/>
<path d="M8 11.9999V12.0099" stroke="#4B465C" stroke-width="1.5" stroke-linecap="round" stroke-linejoin="round"/>
<path d="M8 11.9999V12.0099" stroke="white" stroke-opacity="0.7" stroke-width="1.5" stroke-linecap="round" stroke-linejoin="round"/>
<path d="M16 11.9999V12.0099" stroke="#4B465C" stroke-width="1.5" stroke-linecap="round" stroke-linejoin="round"/>
<path d="M16 11.9999V12.0099" stroke="white" stroke-opacity="0.7" stroke-width="1.5" stroke-linecap="round" stroke-linejoin="round"/>
</svg>
