<svg width="22" height="22" viewBox="0 0 22 22" fill="none" xmlns="http://www.w3.org/2000/svg">
<path d="M17.4166 7.98428L12.528 4.18195C11.6454 3.49534 10.4094 3.49534 9.52684 4.18195L4.63734 7.98428C4.04188 8.44735 3.69374 9.15954 3.69409 9.91386V16.5139C3.69409 17.5264 4.5149 18.3472 5.52743 18.3472H16.5274C17.5399 18.3472 18.3608 17.5264 18.3608 16.5139V9.91386C18.3608 9.15945 18.0124 8.4472 17.4166 7.98428" stroke="#4B465C" stroke-width="1.5" stroke-linecap="round" stroke-linejoin="round"/>
<path d="M17.4166 7.98428L12.528 4.18195C11.6454 3.49534 10.4094 3.49534 9.52684 4.18195L4.63734 7.98428C4.04188 8.44735 3.69374 9.15954 3.69409 9.91386V16.5139C3.69409 17.5264 4.5149 18.3472 5.52743 18.3472H16.5274C17.5399 18.3472 18.3608 17.5264 18.3608 16.5139V9.91386C18.3608 9.15945 18.0124 8.4472 17.4166 7.98428" stroke="white" stroke-opacity="0.8" stroke-width="1.5" stroke-linecap="round" stroke-linejoin="round"/>
<path d="M14.6666 13.7501C12.6408 14.972 9.35725 14.972 7.33325 13.7501" stroke="#4B465C" stroke-width="1.5" stroke-linecap="round" stroke-linejoin="round"/>
<path d="M14.6666 13.7501C12.6408 14.972 9.35725 14.972 7.33325 13.7501" stroke="white" stroke-opacity="0.8" stroke-width="1.5" stroke-linecap="round" stroke-linejoin="round"/>
</svg>
