<svg width="22" height="22" viewBox="0 0 22 22" fill="none" xmlns="http://www.w3.org/2000/svg">
<path d="M3.66669 6.41683H18.3334" stroke="#4B465C" stroke-width="1.5" stroke-linecap="round" stroke-linejoin="round"/>
<path d="M3.66669 6.41683H18.3334" stroke="white" stroke-opacity="0.2" stroke-width="1.5" stroke-linecap="round" stroke-linejoin="round"/>
<path d="M9.16665 10.0835V15.5835" stroke="#4B465C" stroke-width="1.5" stroke-linecap="round" stroke-linejoin="round"/>
<path d="M9.16665 10.0835V15.5835" stroke="white" stroke-opacity="0.2" stroke-width="1.5" stroke-linecap="round" stroke-linejoin="round"/>
<path d="M12.8333 10.0835V15.5835" stroke="#4B465C" stroke-width="1.5" stroke-linecap="round" stroke-linejoin="round"/>
<path d="M12.8333 10.0835V15.5835" stroke="white" stroke-opacity="0.2" stroke-width="1.5" stroke-linecap="round" stroke-linejoin="round"/>
<path d="M4.58331 6.4165L5.49998 17.4165C5.49998 18.429 6.32079 19.2498 7.33331 19.2498H14.6666C15.6792 19.2498 16.5 18.429 16.5 17.4165L17.4166 6.4165" stroke="#4B465C" stroke-width="1.5" stroke-linecap="round" stroke-linejoin="round"/>
<path d="M4.58331 6.4165L5.49998 17.4165C5.49998 18.429 6.32079 19.2498 7.33331 19.2498H14.6666C15.6792 19.2498 16.5 18.429 16.5 17.4165L17.4166 6.4165" stroke="white" stroke-opacity="0.2" stroke-width="1.5" stroke-linecap="round" stroke-linejoin="round"/>
<path d="M8.25 6.41667V3.66667C8.25 3.16041 8.66041 2.75 9.16667 2.75H12.8333C13.3396 2.75 13.75 3.16041 13.75 3.66667V6.41667" stroke="#4B465C" stroke-width="1.5" stroke-linecap="round" stroke-linejoin="round"/>
<path d="M8.25 6.41667V3.66667C8.25 3.16041 8.66041 2.75 9.16667 2.75H12.8333C13.3396 2.75 13.75 3.16041 13.75 3.66667V6.41667" stroke="white" stroke-opacity="0.2" stroke-width="1.5" stroke-linecap="round" stroke-linejoin="round"/>
</svg>
